<svg width="64" height="64" viewBox="0 0 64 64" fill="none" xmlns="http://www.w3.org/2000/svg">
<path d="M25.7 40.5L18.5 33.3C17.0477 31.8478 16.1358 29.9425 15.9157 27.9005C15.6955 25.8585 16.1805 23.8026 17.2899 22.0743C18.3993 20.3459 20.0666 19.0489 22.0147 18.3988C23.9629 17.7486 26.0749 17.7843 28 18.5V2H14C13.4696 2 12.9609 2.21071 12.5858 2.58579C12.2107 2.96086 12 3.46957 12 4V42C12 42.5304 12.2107 43.0391 12.5858 43.4142C12.9609 43.7893 13.4696 44 14 44H25.8C25.6497 42.8396 25.6162 41.6671 25.7 40.5ZM40 4C40 3.46957 39.7893 2.96086 39.4142 2.58579C39.0391 2.21071 38.5304 2 38 2H32V21.3L40 29.3V4Z" fill="#F70ADF"/>
<path d="M48.7 28.7L44 23.9V36.8L42.8 37.8L28.4 23.5C27.9702 22.9269 27.4222 22.4529 26.7933 22.11C26.1643 21.7671 25.469 21.5634 24.7544 21.5126C24.0399 21.4618 23.3228 21.5652 22.6516 21.8156C21.9805 22.0661 21.371 22.4579 20.8645 22.9645C20.3579 23.471 19.9661 24.0805 19.7156 24.7516C19.4651 25.4228 19.3618 26.1399 19.4126 26.8544C19.4634 27.569 19.6671 28.2643 20.01 28.8933C20.3529 29.5222 20.8269 30.0702 21.4 30.5L30 39.1C29.2598 42.0909 29.6145 45.248 31 48H22.3C22.7656 50.682 23.7875 53.2368 25.3 55.5C28.1 60 28 61.3 28 62H52C52 62 52.1 48.6 52.1 40C52 34.2 51.2 31.1 48.7 28.7Z" fill="#F70ADF"/>
</svg>
