<svg width="64" height="64" viewBox="0 0 64 64" fill="none" xmlns="http://www.w3.org/2000/svg">
<path d="M40 23.5H24V56.2C24 56.5448 24.137 56.8754 24.3808 57.1192C24.6246 57.363 24.9552 57.5 25.3 57.5H60.7C61.0448 57.5 61.3754 57.363 61.6192 57.1192C61.863 56.8754 62 56.5448 62 56.2V27.5H40V23.5Z" fill="#F70ADF"/>
<path d="M40 19.5V7.5H18V3.5H2V36.2C2 36.5448 2.13696 36.8754 2.38076 37.1192C2.62456 37.363 2.95522 37.5 3.3 37.5H20V19.5H40ZM17.4 52.1L12.4 47.1C12.0149 46.8111 11.5384 46.6709 11.0582 46.705C10.578 46.7392 10.1262 46.9454 9.78579 47.2858C9.44536 47.6262 9.23916 48.078 9.20503 48.5582C9.1709 49.0384 9.31114 49.5149 9.6 49.9L11.2 51.5H6C5.46957 51.5 4.96086 51.2893 4.58579 50.9142C4.21071 50.5391 4 50.0304 4 49.5V47.5C4 46.9696 3.78929 46.4609 3.41421 46.0858C3.03914 45.7107 2.53043 45.5 2 45.5C1.46957 45.5 0.960859 45.7107 0.585786 46.0858C0.210714 46.4609 0 46.9696 0 47.5L0 49.5C0 51.0913 0.632141 52.6174 1.75736 53.7426C2.88258 54.8679 4.4087 55.5 6 55.5H11.2L9.6 57.1C9.31114 57.4851 9.1709 57.9616 9.20503 58.4418C9.23916 58.922 9.44536 59.3738 9.78579 59.7142C10.1262 60.0546 10.578 60.2608 11.0582 60.295C11.5384 60.3291 12.0149 60.1889 12.4 59.9L17.4 54.9L18.8 53.5L17.4 52.1Z" fill="#F70ADF"/>
<path d="M58 9.49922H52.7999L54.4 7.89922C54.6888 7.51408 54.829 7.03766 54.7949 6.55744C54.7608 6.07722 54.5546 5.62543 54.2142 5.28501C53.8737 4.94459 53.4219 4.73838 52.9417 4.70425C52.4615 4.67012 51.9851 4.81036 51.5999 5.09922L46.5999 10.0992L45.2 11.4992L46.5999 12.8992L51.5999 17.8992C51.9851 18.1881 52.4615 18.3283 52.9417 18.2942C53.4219 18.2601 53.8737 18.0539 54.2142 17.7134C54.5546 17.373 54.7608 16.9212 54.7949 16.441C54.829 15.9608 54.6888 15.4844 54.4 15.0992L52.7999 13.4992H58C58.5304 13.4992 59.0391 13.7099 59.4142 14.085C59.7892 14.4601 60 14.9688 60 15.4992V17.4992C60 18.0297 60.2107 18.5384 60.5857 18.9134C60.9608 19.2885 61.4695 19.4992 62 19.4992C62.5304 19.4992 63.0391 19.2885 63.4142 18.9134C63.7892 18.5384 64 18.0297 64 17.4992V15.4992C64 13.9079 63.3678 12.3818 62.2426 11.2566C61.1174 10.1314 59.5912 9.49922 58 9.49922Z" fill="#F70ADF"/>
</svg>
