<svg width="64" height="64" viewBox="0 0 64 64" fill="none" xmlns="http://www.w3.org/2000/svg">
<path d="M38 41V33C38 31.4087 38.6321 29.8826 39.7574 28.7574C40.8826 27.6321 42.4087 27 44 27H58V18C58 17.2044 57.6839 16.4413 57.1213 15.8787C56.5587 15.3161 55.7957 15 55 15H5C4.20435 15 3.44129 15.3161 2.87868 15.8787C2.31607 16.4413 2 17.2044 2 18V56C2 56.7957 2.31607 57.5587 2.87868 58.1213C3.44129 58.6839 4.20435 59 5 59H55C55.7957 59 56.5587 58.6839 57.1213 58.1213C57.6839 57.5587 58 56.7957 58 56V47H44C42.4087 47 40.8826 46.3679 39.7574 45.2426C38.6321 44.1174 38 42.5913 38 41ZM42 19H44C44.5304 19 45.0391 19.2107 45.4142 19.5858C45.7893 19.9609 46 20.4696 46 21C46 21.5304 45.7893 22.0391 45.4142 22.4142C45.0391 22.7893 44.5304 23 44 23H42C41.4696 23 40.9609 22.7893 40.5858 22.4142C40.2107 22.0391 40 21.5304 40 21C40 20.4696 40.2107 19.9609 40.5858 19.5858C40.9609 19.2107 41.4696 19 42 19ZM12 23C11.4696 23 10.9609 22.7893 10.5858 22.4142C10.2107 22.0391 10 21.5304 10 21C10 20.4696 10.2107 19.9609 10.5858 19.5858C10.9609 19.2107 11.4696 19 12 19H14C14.5304 19 15.0391 19.2107 15.4142 19.5858C15.7893 19.9609 16 20.4696 16 21C16 21.5304 15.7893 22.0391 15.4142 22.4142C15.0391 22.7893 14.5304 23 14 23H12ZM18 55H16C15.4696 55 14.9609 54.7893 14.5858 54.4142C14.2107 54.0391 14 53.5304 14 53C14 52.4696 14.2107 51.9609 14.5858 51.5858C14.9609 51.2107 15.4696 51 16 51H18C18.5304 51 19.0391 51.2107 19.4142 51.5858C19.7893 51.9609 20 52.4696 20 53C20 53.5304 19.7893 54.0391 19.4142 54.4142C19.0391 54.7893 18.5304 55 18 55ZM22 23C21.4696 23 20.9609 22.7893 20.5858 22.4142C20.2107 22.0391 20 21.5304 20 21C20 20.4696 20.2107 19.9609 20.5858 19.5858C20.9609 19.2107 21.4696 19 22 19H24C24.5304 19 25.0391 19.2107 25.4142 19.5858C25.7893 19.9609 26 20.4696 26 21C26 21.5304 25.7893 22.0391 25.4142 22.4142C25.0391 22.7893 24.5304 23 24 23H22ZM28 55H26C25.4696 55 24.9609 54.7893 24.5858 54.4142C24.2107 54.0391 24 53.5304 24 53C24 52.4696 24.2107 51.9609 24.5858 51.5858C24.9609 51.2107 25.4696 51 26 51H28C28.5304 51 29.0391 51.2107 29.4142 51.5858C29.7893 51.9609 30 52.4696 30 53C30 53.5304 29.7893 54.0391 29.4142 54.4142C29.0391 54.7893 28.5304 55 28 55ZM32 23C31.4696 23 30.9609 22.7893 30.5858 22.4142C30.2107 22.0391 30 21.5304 30 21C30 20.4696 30.2107 19.9609 30.5858 19.5858C30.9609 19.2107 31.4696 19 32 19H34C34.5304 19 35.0391 19.2107 35.4142 19.5858C35.7893 19.9609 36 20.4696 36 21C36 21.5304 35.7893 22.0391 35.4142 22.4142C35.0391 22.7893 34.5304 23 34 23H32ZM38 55H36C35.4696 55 34.9609 54.7893 34.5858 54.4142C34.2107 54.0391 34 53.5304 34 53C34 52.4696 34.2107 51.9609 34.5858 51.5858C34.9609 51.2107 35.4696 51 36 51H38C38.5304 51 39.0391 51.2107 39.4142 51.5858C39.7893 51.9609 40 52.4696 40 53C40 53.5304 39.7893 54.0391 39.4142 54.4142C39.0391 54.7893 38.5304 55 38 55ZM46 51H48C48.5304 51 49.0391 51.2107 49.4142 51.5858C49.7893 51.9609 50 52.4696 50 53C50 53.5304 49.7893 54.0391 49.4142 54.4142C49.0391 54.7893 48.5304 55 48 55H46C45.4696 55 44.9609 54.7893 44.5858 54.4142C44.2107 54.0391 44 53.5304 44 53C44 52.4696 44.2107 51.9609 44.5858 51.5858C44.9609 51.2107 45.4696 51 46 51Z" fill="#F70ADF"/>
<path d="M48 5L31.5 11H50.2L48 5ZM60 31H44C43.4696 31 42.9609 31.2107 42.5858 31.5858C42.2107 31.9609 42 32.4696 42 33V41C42 41.5304 42.2107 42.0391 42.5858 42.4142C42.9609 42.7893 43.4696 43 44 43H60C60.5304 43 61.0391 42.7893 61.4142 42.4142C61.7893 42.0391 62 41.5304 62 41V33C62 32.4696 61.7893 31.9609 61.4142 31.5858C61.0391 31.2107 60.5304 31 60 31ZM47 39C46.6044 39 46.2178 38.8827 45.8889 38.6629C45.56 38.4432 45.3036 38.1308 45.1522 37.7654C45.0009 37.3999 44.9613 36.9978 45.0384 36.6098C45.1156 36.2219 45.3061 35.8655 45.5858 35.5858C45.8655 35.3061 46.2219 35.1156 46.6098 35.0384C46.9978 34.9613 47.3999 35.0009 47.7654 35.1522C48.1308 35.3036 48.4432 35.56 48.6629 35.8889C48.8827 36.2178 49 36.6044 49 37C49 37.5304 48.7893 38.0391 48.4142 38.4142C48.0391 38.7893 47.5304 39 47 39Z" fill="#F70ADF"/>
</svg>
